<?xml version="1.0" standalone="yes"?>
<svg xmlns="http://www.w3.org/2000/svg" width="153" height="81">
<path style="fill:#ffffff; stroke:none;" d="M0 0L0 81L71 81L68 68L66 68L66 73C64.5568 71.5265 64.2061 71.032 64 69L60 68C60 69.0461 60.5663 69.9667 59 70C56.9229 70.0442 55.0333 68.9718 53 69C49.6472 69.0466 42.757 73.8173 40 70C34.6311 62.5661 45.3518 50.9841 44 44L47 45C45.8206 36.9783 43.6417 28.9583 42 21L59 21L57 33L83 33L83 12L110 12L110 5L121 5L121 12C126.666 11.604 130.101 8.51714 136 10C134.47 19.8947 135 30.0171 135 40C138.099 32.6151 132.158 20.8103 140 16C140 20.5716 139.582 25.3689 140.129 29.9105C140.617 33.9646 142.697 36.3787 140 40L140 42C141.267 43.543 141.489 44.0478 142 46C142.685 44.7516 142.749 44.4516 143 43C144.532 50.2254 140.574 57.4046 144 64C141.745 64.3863 144 77.4937 144 81L153 81L153 0L0 0z"/>
<path style="fill:#dfeef1; stroke:none;" d="M110 5L110 12L83 12L83 33L57 33C57.5966 28.9418 58.8116 25.1233 59 21L42 21C43.0889 29.0862 45.1833 37.0565 47 45L54 45L56 36L83 36L83 63C85.2942 63.3026 86.2115 63.5785 88 65C92.9273 62.2597 98.5159 63 104 63L134 63C134 58.7608 133.362 54.4819 136 51C133.397 46.3195 134 41.2148 134 36L134 12L121 12L121 5L110 5z"/>
<path style="fill:#dcf9ff; stroke:none;" d="M6 8L6 69C7.87516 64.5313 7 58.8087 7 54L7 24C7 18.9198 7.98056 12.7199 6 8z"/>
<path style="fill:#9fd7e8; stroke:none;" d="M7 8L7 69L14 69C14 63.9442 11.5862 50.1853 16.3179 47.0278C21.2954 43.7063 31.2655 49.237 34.9722 43.6821C36.5396 41.3332 35.9988 37.6704 36 35C36.0027 29.0005 36.0406 22.9993 35.9992 17C35.9805 14.2888 36.27 10.9989 33.6821 9.3179C31.2423 7.73316 27.7705 8.01431 25 8.00077L7 8z"/>
<path style="fill:#f9ffff; stroke:none;" d="M113 8L113 12L118 12L118 8L113 8z"/>
<path style="fill:#feffff; stroke:none;" d="M126 12L134 12C134 22.2061 132.42 33.8428 134.148 43.8951C134.702 47.1159 137.427 47.8481 138.977 50.3897C140.668 53.1626 140.206 57.8915 139.895 61C138.938 70.5642 127.126 73.2804 125 63L102 63C99.6551 63.0048 95.8145 62.4236 94.1968 64.6034C92.46 66.9435 93.9487 71.3005 94 74C95.5819 76.0567 95.8256 77.3875 96 80L88 80C93.2165 82.1889 100.381 81 106 81L144 81C144 77.3253 145.152 71.4553 144 68C143.375 66.1238 141.649 66.4538 142 64C142.268 62.1268 143.29 63.8226 144 64C141.529 57.4918 143.728 49.9641 144 43C143.315 44.2483 143.251 44.5485 143 46C142.087 44.1541 141.599 43.2052 140 42L140 40C143.351 37.0717 140.915 33.6408 140.259 29.9105C139.473 25.4364 140 20.5324 140 16C133.018 18.8068 136 33.5578 136 40C133.254 30.7103 135.21 19.5247 136 10C131.876 8.50141 128.562 7.98509 126 12z"/>
<path style="fill:#dbf8fd; stroke:none;" d="M36 10L36 44C38.8019 37.3226 37.0005 27.2153 37 20C36.9998 16.5814 37.3283 13.1656 36 10z"/>
<path style="fill:#feffff; stroke:none;" d="M86 15L86 33L93 33L93 36L86 36C86 38.7819 85.5387 42.0944 86.3179 44.7909C87.087 47.4527 89.8322 48.6142 90.848 51.1042C91.8502 53.561 90.4947 56.548 90 59C92.8731 57.2043 96.5264 58 100 58L123 58C123.271 55.4166 123.37 52.5798 124.43 50.1698C125.547 47.6292 127.722 45.8116 128.258 42.9853C129.809 34.8148 128 24.4048 128 16L126 16C126 22.1647 127.227 30.3187 124.051 35.9059C121.089 41.1151 110.066 41.1108 106.515 36.6952C104.269 33.9036 102.352 30.6006 102.058 26.9961C101.801 23.8473 103.09 18.3194 100.258 16.0278C97.218 13.5684 89.7133 15 86 15z"/>
<path style="fill:#fdffff; stroke:none;" d="M101 15C102.477 22.9556 100.772 30.8862 106.515 37.4421C109.77 41.1581 121.311 41.3499 124.051 36.8272C127.456 31.2049 126 22.2793 126 16L128 16C128 24.3571 129.247 33.7525 128.004 41.9961C127.516 45.2314 125.092 47.211 123.939 50.1304C122.98 52.5591 123.108 55.4313 123 58C115.329 58.0743 107.692 58.0329 100 57.9992C97.006 57.9861 93.2807 57.0081 91 59C91.0607 56.9495 91.3005 55.9583 92 54L88 54L88 50L86 50L86 60L125 60C125.001 53.9049 124.689 49.527 131 47L131 15L121 15L121 37L110 37L110 15L101 15z"/>
<path style="fill:#fbffff; stroke:none;" d="M113 15L113 34L118 34L118 15L113 15z"/>
<path style="fill:#a5cbd3; stroke:none;" d="M15 16C18.9587 17.6611 23.7366 17 28 17C24.0413 15.3389 19.2634 16 15 16z"/>
<path style="fill:#d7f4ff; stroke:none;" d="M14 17C14 22.4061 11.7548 34.2904 16 38C14.7643 31.3442 16.5749 23.1364 14 17z"/>
<path style="fill:#feffff; stroke:none;" d="M15 17C15 21.5729 12.8477 33.8212 16.7423 36.9722C19.3075 39.0477 24.9032 38 28 38L28 17L15 17z"/>
<path style="fill:#a2cfd8; stroke:none;" d="M28 18L28 37C30.0196 32.1871 30.0196 22.8129 28 18z"/>
<path style="fill:#f8ffff; stroke:none;" d="M45 24L48 38C49.9713 33.2917 47.8074 28.7687 47 24L45 24z"/>
<path style="fill:#faffff; stroke:none;" d="M49 24C49.7679 25.3142 49.6858 25.2321 51 26C50.3645 29.494 50.3125 31.9204 54 33L55 24L49 24z"/>
<path style="fill:#fefeff; stroke:none;" d="M56 36C53.8228 44.2499 56.3304 50.8528 58.4213 59C59.5242 63.2976 59.9439 66.6901 64 69C64.0336 71.3367 64.0977 71.6659 66 73L66 68L68 68C68.3109 70.9507 69.1038 78.0742 71.6134 79.9869C73.5355 81.4517 76.7457 80.9962 79 81C84.7182 81.0096 90.2969 80.0472 96 80C95.923 77.3549 96.0034 75.734 94 74L94 63C91.7429 64.7253 90.542 67.5963 87.9421 68.9722C77.4994 74.4987 74.8373 57.7029 77.6026 51.213C78.7336 48.5586 81.8482 47.633 82.6821 44.787C83.4694 42.1 83 38.7747 83 36L56 36z"/>
<path style="fill:#eeffff; stroke:none;" d="M44 44C44.2281 50.3871 39.2835 57.1955 39 64C38.9049 66.2816 38.3626 70.2524 41 71.3333C45.5877 73.2135 51.2268 68.7439 56 70L55 64L49 64C48.2193 66.943 47.6046 68.4214 45 70C46.488 62.3269 48.9595 54.721 50 47C59.4555 49.9844 54.2808 64.5667 61 70C60.3069 64.5543 58.5193 59.3514 57.3596 54C56.7793 51.3227 56.7969 47.8176 54.3472 46.0278C51.869 44.2171 46.9839 44.554 44 44z"/>
<path style="fill:#a3ccd4; stroke:none;" d="M15 46C19.974 48.0872 26.6381 47 32 47C27.026 44.9128 20.3619 46 15 46z"/>
<path style="fill:#a9d4da; stroke:none;" d="M46 46C43.7505 51.2285 36.8291 67.5965 44 70C44.1392 63.2568 49.868 51.5598 46 46z"/>
<path style="fill:#d7f4ff; stroke:none;" d="M14 47L14 69C16.2187 63.7127 16.2187 52.2873 14 47z"/>
<path style="fill:#a1d5e6; stroke:none;" d="M50 47C48.4169 54.6741 46.0041 62.2246 45 70C50.7555 68.3178 50.8392 58.1517 51 53L53 53C53.4268 58.4084 53.1124 67.9369 59 70C58.3693 63.6646 57.2633 48.2603 50 47z"/>
<path style="fill:#a6ccdd; stroke:none;" d="M91 63C87.2597 65.2976 85.6942 67.2421 81 67C81 59.9298 82.0928 53.857 83 47C76.9801 49.2134 75.1148 63.6699 79.7423 68.3966C84.625 73.3839 90.599 68.2567 91 63z"/>
<path style="fill:#a6d4d9; stroke:none;" d="M86 47L88 54L91 54C90.6953 50.044 89.7676 48.3843 86 47z"/>
<path style="fill:#a7d0dd; stroke:none;" d="M125 60L128 60C128.014 54.9649 129.013 51.5575 131 47C124.108 48.6936 125 53.977 125 60z"/>
<path style="fill:#a9d6dd; stroke:none;" d="M134 47C135.268 52.3948 137.28 58.2408 135.682 63.8912C134.123 69.4025 129.235 67.0561 128 63L125 63C125.637 68.5791 132.263 73.2523 137.258 68.2577C141.925 63.5912 139.971 49.1954 134 47z"/>
<path style="fill:#ecffff; stroke:none;" d="M77 49L77 67C78.9516 62.349 78.9516 53.651 77 49z"/>
<path style="fill:#c9efff; stroke:none;" d="M139 49L139 65C140.812 60.6811 140.812 53.3189 139 49z"/>
<path style="fill:#c7e2e6; stroke:none;" d="M91 50L91 54C91.7102 52.2405 91.7102 51.7595 91 50z"/>
<path style="fill:#f1ffff; stroke:none;" d="M130 50C127.788 53.1586 128.003 56.2199 128 60L131 60C131 56.5856 131.327 53.1633 130 50z"/>
<path style="fill:#d8ffff; stroke:none;" d="M81 51C81 55.6007 79.3374 63.7995 83 67C82.7293 61.7465 84.2987 55.3541 81 51z"/>
<path style="fill:#f8ffff; stroke:none;" d="M134 51L134 63L128 63C128.694 67.1595 133.483 69.9589 135.486 64.6559C136.97 60.7286 136 55.1496 136 51L134 51z"/>
<path style="fill:#e9ffff; stroke:none;" d="M51 53L50 62L54 62L53 53L51 53z"/>
<path style="fill:#cde7ee; stroke:none;" d="M47.3333 57.6667C47.2778 57.7222 47.2222 58.7778 47.6667 58.3333C47.7222 58.2778 47.7778 57.2222 47.3333 57.6667z"/>
<path style="fill:#c3ebfc; stroke:none;" d="M57 61L57 64C57.6961 62.4463 57.6961 62.5537 57 61z"/>
<path style="fill:#abcccb; stroke:none;" d="M50 62L50 64L54 64L54 62L50 62z"/>
<path style="fill:#f9ffff; stroke:none;" d="M82 63C83.8826 67.428 87.0827 68.5032 88 63L82 63z"/>
<path style="fill:#bfe6f0; stroke:none;" d="M91 63L91 67C91.7102 65.2405 91.7102 64.7595 91 63z"/>
<path style="fill:#c9eff6; stroke:none;" d="M134.667 66.3333C134.222 66.7778 135.278 66.7222 135.333 66.6667C135.778 66.2222 134.722 66.2778 134.667 66.3333z"/>
</svg>
